<?xml version="1.0" encoding="UTF-8" standalone="no"?>
<!-- Created with Inkscape (http://www.inkscape.org/) by Marsupilami -->
<svg
   xmlns:svg="http://www.w3.org/2000/svg"
   xmlns="http://www.w3.org/2000/svg"
   version="1.0"
   width="1024"
   height="317"
   viewBox="0 0 178.3275 55.286865"
   id="svg3336">
  <defs
     id="defs3338" />
  <g
     transform="translate(-241.235,-646.21501)"
     id="layer1">
    <path
       d="M 0,9.21875 L 0,13.03125 L 3.8125,13.03125 L 3.8125,9.21875 L 0,9.21875 z M 4.34375,9.21875 L 4.34375,13.03125 L 5.59375,13.03125 L 5.59375,9.21875 L 4.34375,9.21875 z M 6.65625,9.21875 L 6.65625,13.03125 L 7.9375,13.03125 L 7.9375,9.21875 L 6.65625,9.21875 z M 9.3125,9.21875 L 9.3125,13.03125 L 10.5625,13.03125 L 10.5625,9.21875 L 9.3125,9.21875 z M 12.25,9.21875 L 12.25,13.03125 L 13.53125,13.03125 L 13.53125,9.21875 L 12.25,9.21875 z M 15.53125,9.21875 L 15.53125,13.03125 L 16.8125,13.03125 L 16.8125,9.21875 L 15.53125,9.21875 z M 18.90625,9.21875 L 18.90625,13.03125 L 20.1875,13.03125 L 20.1875,9.21875 L 18.90625,9.21875 z M 22.40625,9.21875 L 22.40625,13.03125 L 23.65625,13.03125 L 23.65625,9.21875 L 22.40625,9.21875 z M 25.875,9.21875 L 25.875,13.03125 L 27.15625,13.03125 L 27.15625,9.21875 L 25.875,9.21875 z M 29.25,9.21875 L 29.25,13.03125 L 30.53125,13.03125 L 30.53125,9.21875 L 29.25,9.21875 z M 32.53125,9.21875 L 32.53125,13.03125 L 33.8125,13.03125 L 33.8125,9.21875 L 32.53125,9.21875 z M 35.5,9.21875 L 35.5,13.03125 L 36.78125,13.03125 L 36.78125,9.21875 L 35.5,9.21875 z M 38.125,9.21875 L 38.125,13.03125 L 39.40625,13.03125 L 39.40625,9.21875 L 38.125,9.21875 z M 40.46875,9.21875 L 40.46875,13.03125 L 41.71875,13.03125 L 41.71875,9.21875 L 40.46875,9.21875 z M 42.25,9.21875 L 42.25,13.03125 L 46.0625,13.03125 L 46.0625,9.21875 L 42.25,9.21875 z M 0,13.5625 L 0,14.8125 L 3.8125,14.8125 L 3.8125,13.5625 L 0,13.5625 z M 4.34375,13.5625 L 4.34375,14.8125 L 5.59375,14.8125 L 5.59375,13.5625 L 4.34375,13.5625 z M 6.65625,13.5625 L 6.65625,14.8125 L 7.9375,14.8125 L 7.9375,13.5625 L 6.65625,13.5625 z M 9.3125,13.5625 L 9.3125,14.8125 L 10.5625,14.8125 L 10.5625,13.5625 L 9.3125,13.5625 z M 12.25,13.5625 L 12.25,14.8125 L 13.53125,14.8125 L 13.53125,13.5625 L 12.25,13.5625 z M 15.53125,13.5625 L 15.53125,14.8125 L 16.8125,14.8125 L 16.8125,13.5625 L 15.53125,13.5625 z M 18.90625,13.5625 L 18.90625,14.8125 L 20.1875,14.8125 L 20.1875,13.5625 L 18.90625,13.5625 z M 22.40625,13.5625 L 22.40625,14.8125 L 23.65625,14.8125 L 23.65625,13.5625 L 22.40625,13.5625 z M 25.875,13.5625 L 25.875,14.8125 L 27.15625,14.8125 L 27.15625,13.5625 L 25.875,13.5625 z M 29.25,13.5625 L 29.25,14.8125 L 30.53125,14.8125 L 30.53125,13.5625 L 29.25,13.5625 z M 32.53125,13.5625 L 32.53125,14.8125 L 33.8125,14.8125 L 33.8125,13.5625 L 32.53125,13.5625 z M 35.5,13.5625 L 35.5,14.8125 L 36.78125,14.8125 L 36.78125,13.5625 L 35.5,13.5625 z M 38.125,13.5625 L 38.125,14.8125 L 39.40625,14.8125 L 39.40625,13.5625 L 38.125,13.5625 z M 40.46875,13.5625 L 40.46875,14.8125 L 41.71875,14.8125 L 41.71875,13.5625 L 40.46875,13.5625 z M 42.25,13.5625 L 42.25,14.8125 L 46.0625,14.8125 L 46.0625,13.5625 L 42.25,13.5625 z M 0,15.875 L 0,17.15625 L 3.8125,17.15625 L 3.8125,15.875 L 0,15.875 z M 4.34375,15.875 L 4.34375,17.15625 L 5.59375,17.15625 L 5.59375,15.875 L 4.34375,15.875 z M 6.65625,15.875 L 6.65625,17.15625 L 7.9375,17.15625 L 7.9375,15.875 L 6.65625,15.875 z M 9.3125,15.875 L 9.3125,17.15625 L 10.5625,17.15625 L 10.5625,15.875 L 9.3125,15.875 z M 12.25,15.875 L 12.25,17.15625 L 13.53125,17.15625 L 13.53125,15.875 L 12.25,15.875 z M 15.53125,15.875 L 15.53125,17.15625 L 16.8125,17.15625 L 16.8125,15.875 L 15.53125,15.875 z M 18.90625,15.875 L 18.90625,17.15625 L 20.1875,17.15625 L 20.1875,15.875 L 18.90625,15.875 z M 22.40625,15.875 L 22.40625,17.15625 L 23.65625,17.15625 L 23.65625,15.875 L 22.40625,15.875 z M 25.875,15.875 L 25.875,17.15625 L 27.15625,17.15625 L 27.15625,15.875 L 25.875,15.875 z M 29.25,15.875 L 29.25,17.15625 L 30.53125,17.15625 L 30.53125,15.875 L 29.25,15.875 z M 32.53125,15.875 L 32.53125,17.15625 L 33.8125,17.15625 L 33.8125,15.875 L 32.53125,15.875 z M 35.5,15.875 L 35.5,17.15625 L 36.78125,17.15625 L 36.78125,15.875 L 35.5,15.875 z M 38.125,15.875 L 38.125,17.15625 L 39.40625,17.15625 L 39.40625,15.875 L 38.125,15.875 z M 40.46875,15.875 L 40.46875,17.15625 L 41.71875,17.15625 L 41.71875,15.875 L 40.46875,15.875 z M 42.25,15.875 L 42.25,17.15625 L 46.0625,17.15625 L 46.0625,15.875 L 42.25,15.875 z M 0,18.53125 L 0,19.78125 L 3.8125,19.78125 L 3.8125,18.53125 L 0,18.53125 z M 4.34375,18.53125 L 4.34375,19.78125 L 5.59375,19.78125 L 5.59375,18.53125 L 4.34375,18.53125 z M 6.65625,18.53125 L 6.65625,19.78125 L 7.9375,19.78125 L 7.9375,18.53125 L 6.65625,18.53125 z M 9.3125,18.53125 L 9.3125,19.78125 L 10.5625,19.78125 L 10.5625,18.53125 L 9.3125,18.53125 z M 12.25,18.53125 L 12.25,19.78125 L 13.53125,19.78125 L 13.53125,18.53125 L 12.25,18.53125 z M 15.53125,18.53125 L 15.53125,19.78125 L 16.8125,19.78125 L 16.8125,18.53125 L 15.53125,18.53125 z M 18.90625,18.53125 L 18.90625,19.78125 L 20.1875,19.78125 L 20.1875,18.53125 L 18.90625,18.53125 z M 22.40625,18.53125 L 22.40625,19.78125 L 23.65625,19.78125 L 23.65625,18.53125 L 22.40625,18.53125 z M 25.875,18.53125 L 25.875,19.78125 L 27.15625,19.78125 L 27.15625,18.53125 L 25.875,18.53125 z M 29.25,18.53125 L 29.25,19.78125 L 30.53125,19.78125 L 30.53125,18.53125 L 29.25,18.53125 z M 32.53125,18.53125 L 32.53125,19.78125 L 33.8125,19.78125 L 33.8125,18.53125 L 32.53125,18.53125 z M 35.5,18.53125 L 35.5,19.78125 L 36.78125,19.78125 L 36.78125,18.53125 L 35.5,18.53125 z M 38.125,18.53125 L 38.125,19.78125 L 39.40625,19.78125 L 39.40625,18.53125 L 38.125,18.53125 z M 40.46875,18.53125 L 40.46875,19.78125 L 41.71875,19.78125 L 41.71875,18.53125 L 40.46875,18.53125 z M 42.25,18.53125 L 42.25,19.78125 L 46.0625,19.78125 L 46.0625,18.53125 L 42.25,18.53125 z M 0,21.46875 L 0,22.75 L 3.8125,22.75 L 3.8125,21.46875 L 0,21.46875 z M 4.34375,21.46875 L 4.34375,22.75 L 5.59375,22.75 L 5.59375,21.46875 L 4.34375,21.46875 z M 6.65625,21.46875 L 6.65625,22.75 L 7.9375,22.75 L 7.9375,21.46875 L 6.65625,21.46875 z M 9.3125,21.46875 L 9.3125,22.75 L 10.5625,22.75 L 10.5625,21.46875 L 9.3125,21.46875 z M 12.25,21.46875 L 12.25,22.75 L 13.53125,22.75 L 13.53125,21.46875 L 12.25,21.46875 z M 15.53125,21.46875 L 15.53125,22.75 L 16.8125,22.75 L 16.8125,21.46875 L 15.53125,21.46875 z M 18.90625,21.46875 L 18.90625,22.75 L 20.1875,22.75 L 20.1875,21.46875 L 18.90625,21.46875 z M 22.40625,21.46875 L 22.40625,22.75 L 23.65625,22.75 L 23.65625,21.46875 L 22.40625,21.46875 z M 25.875,21.46875 L 25.875,22.75 L 27.15625,22.75 L 27.15625,21.46875 L 25.875,21.46875 z M 29.25,21.46875 L 29.25,22.75 L 30.53125,22.75 L 30.53125,21.46875 L 29.25,21.46875 z M 32.53125,21.46875 L 32.53125,22.75 L 33.8125,22.75 L 33.8125,21.46875 L 32.53125,21.46875 z M 35.5,21.46875 L 35.5,22.75 L 36.78125,22.75 L 36.78125,21.46875 L 35.5,21.46875 z M 38.125,21.46875 L 38.125,22.75 L 39.40625,22.75 L 39.40625,21.46875 L 38.125,21.46875 z M 40.46875,21.46875 L 40.46875,22.75 L 41.71875,22.75 L 41.71875,21.46875 L 40.46875,21.46875 z M 42.25,21.46875 L 42.25,22.75 L 46.0625,22.75 L 46.0625,21.46875 L 42.25,21.46875 z M 0,24.75 L 0,26.03125 L 3.8125,26.03125 L 3.8125,24.75 L 0,24.75 z M 4.34375,24.75 L 4.34375,26.03125 L 5.59375,26.03125 L 5.59375,24.75 L 4.34375,24.75 z M 6.65625,24.75 L 6.65625,26.03125 L 7.9375,26.03125 L 7.9375,24.75 L 6.65625,24.75 z M 9.3125,24.75 L 9.3125,26.03125 L 10.5625,26.03125 L 10.5625,24.75 L 9.3125,24.75 z M 12.25,24.75 L 12.25,26.03125 L 13.53125,26.03125 L 13.53125,24.75 L 12.25,24.75 z M 15.53125,24.75 L 15.53125,26.03125 L 16.8125,26.03125 L 16.8125,24.75 L 15.53125,24.75 z M 18.90625,24.75 L 18.90625,26.03125 L 20.1875,26.03125 L 20.1875,24.75 L 18.90625,24.75 z M 22.40625,24.75 L 22.40625,26.03125 L 23.65625,26.03125 L 23.65625,24.75 L 22.40625,24.75 z M 25.875,24.75 L 25.875,26.03125 L 27.15625,26.03125 L 27.15625,24.75 L 25.875,24.75 z M 29.25,24.75 L 29.25,26.03125 L 30.53125,26.03125 L 30.53125,24.75 L 29.25,24.75 z M 32.53125,24.75 L 32.53125,26.03125 L 33.8125,26.03125 L 33.8125,24.75 L 32.53125,24.75 z M 35.5,24.75 L 35.5,26.03125 L 36.78125,26.03125 L 36.78125,24.75 L 35.5,24.75 z M 38.125,24.75 L 38.125,26.03125 L 39.40625,26.03125 L 39.40625,24.75 L 38.125,24.75 z M 40.46875,24.75 L 40.46875,26.03125 L 41.71875,26.03125 L 41.71875,24.75 L 40.46875,24.75 z M 42.25,24.75 L 42.25,26.03125 L 46.0625,26.03125 L 46.0625,24.75 L 42.25,24.75 z M 0,28.125 L 0,29.40625 L 3.8125,29.40625 L 3.8125,28.125 L 0,28.125 z M 4.34375,28.125 L 4.34375,29.40625 L 5.59375,29.40625 L 5.59375,28.125 L 4.34375,28.125 z M 6.65625,28.125 L 6.65625,29.40625 L 7.9375,29.40625 L 7.9375,28.125 L 6.65625,28.125 z M 9.3125,28.125 L 9.3125,29.40625 L 10.5625,29.40625 L 10.5625,28.125 L 9.3125,28.125 z M 12.25,28.125 L 12.25,29.40625 L 13.53125,29.40625 L 13.53125,28.125 L 12.25,28.125 z M 15.53125,28.125 L 15.53125,29.40625 L 16.8125,29.40625 L 16.8125,28.125 L 15.53125,28.125 z M 18.90625,28.125 L 18.90625,29.40625 L 20.1875,29.40625 L 20.1875,28.125 L 18.90625,28.125 z M 22.40625,28.125 L 22.40625,29.40625 L 23.65625,29.40625 L 23.65625,28.125 L 22.40625,28.125 z M 25.875,28.125 L 25.875,29.40625 L 27.15625,29.40625 L 27.15625,28.125 L 25.875,28.125 z M 29.25,28.125 L 29.25,29.40625 L 30.53125,29.40625 L 30.53125,28.125 L 29.25,28.125 z M 32.53125,28.125 L 32.53125,29.40625 L 33.8125,29.40625 L 33.8125,28.125 L 32.53125,28.125 z M 35.5,28.125 L 35.5,29.40625 L 36.78125,29.40625 L 36.78125,28.125 L 35.5,28.125 z M 38.125,28.125 L 38.125,29.40625 L 39.40625,29.40625 L 39.40625,28.125 L 38.125,28.125 z M 40.46875,28.125 L 40.46875,29.40625 L 41.71875,29.40625 L 41.71875,28.125 L 40.46875,28.125 z M 42.25,28.125 L 42.25,29.40625 L 46.0625,29.40625 L 46.0625,28.125 L 42.25,28.125 z M 0,31.625 L 0,32.875 L 3.8125,32.875 L 3.8125,31.625 L 0,31.625 z M 4.34375,31.625 L 4.34375,32.875 L 5.59375,32.875 L 5.59375,31.625 L 4.34375,31.625 z M 6.65625,31.625 L 6.65625,32.875 L 7.9375,32.875 L 7.9375,31.625 L 6.65625,31.625 z M 9.3125,31.625 L 9.3125,32.875 L 10.5625,32.875 L 10.5625,31.625 L 9.3125,31.625 z M 12.25,31.625 L 12.25,32.875 L 13.53125,32.875 L 13.53125,31.625 L 12.25,31.625 z M 15.53125,31.625 L 15.53125,32.875 L 16.8125,32.875 L 16.8125,31.625 L 15.53125,31.625 z M 18.90625,31.625 L 18.90625,32.875 L 20.1875,32.875 L 20.1875,31.625 L 18.90625,31.625 z M 22.40625,31.625 L 22.40625,32.875 L 23.65625,32.875 L 23.65625,31.625 L 22.40625,31.625 z M 25.875,31.625 L 25.875,32.875 L 27.15625,32.875 L 27.15625,31.625 L 25.875,31.625 z M 29.25,31.625 L 29.25,32.875 L 30.53125,32.875 L 30.53125,31.625 L 29.25,31.625 z M 32.53125,31.625 L 32.53125,32.875 L 33.8125,32.875 L 33.8125,31.625 L 32.53125,31.625 z M 35.5,31.625 L 35.5,32.875 L 36.78125,32.875 L 36.78125,31.625 L 35.5,31.625 z M 38.125,31.625 L 38.125,32.875 L 39.40625,32.875 L 39.40625,31.625 L 38.125,31.625 z M 40.46875,31.625 L 40.46875,32.875 L 41.71875,32.875 L 41.71875,31.625 L 40.46875,31.625 z M 42.25,31.625 L 42.25,32.875 L 46.0625,32.875 L 46.0625,31.625 L 42.25,31.625 z M 0,35.09375 L 0,36.375 L 3.8125,36.375 L 3.8125,35.09375 L 0,35.09375 z M 4.34375,35.09375 L 4.34375,36.375 L 5.59375,36.375 L 5.59375,35.09375 L 4.34375,35.09375 z M 6.65625,35.09375 L 6.65625,36.375 L 7.9375,36.375 L 7.9375,35.09375 L 6.65625,35.09375 z M 9.3125,35.09375 L 9.3125,36.375 L 10.5625,36.375 L 10.5625,35.09375 L 9.3125,35.09375 z M 12.25,35.09375 L 12.25,36.375 L 13.53125,36.375 L 13.53125,35.09375 L 12.25,35.09375 z M 15.53125,35.09375 L 15.53125,36.375 L 16.8125,36.375 L 16.8125,35.09375 L 15.53125,35.09375 z M 18.90625,35.09375 L 18.90625,36.375 L 20.1875,36.375 L 20.1875,35.09375 L 18.90625,35.09375 z M 22.40625,35.09375 L 22.40625,36.375 L 23.65625,36.375 L 23.65625,35.09375 L 22.40625,35.09375 z M 25.875,35.09375 L 25.875,36.375 L 27.15625,36.375 L 27.15625,35.09375 L 25.875,35.09375 z M 29.25,35.09375 L 29.25,36.375 L 30.53125,36.375 L 30.53125,35.09375 L 29.25,35.09375 z M 32.53125,35.09375 L 32.53125,36.375 L 33.8125,36.375 L 33.8125,35.09375 L 32.53125,35.09375 z M 35.5,35.09375 L 35.5,36.375 L 36.78125,36.375 L 36.78125,35.09375 L 35.5,35.09375 z M 38.125,35.09375 L 38.125,36.375 L 39.40625,36.375 L 39.40625,35.09375 L 38.125,35.09375 z M 40.46875,35.09375 L 40.46875,36.375 L 41.71875,36.375 L 41.71875,35.09375 L 40.46875,35.09375 z M 42.25,35.09375 L 42.25,36.375 L 46.0625,36.375 L 46.0625,35.09375 L 42.25,35.09375 z M 0,38.5 L 0,39.75 L 3.8125,39.75 L 3.8125,38.5 L 0,38.5 z M 4.34375,38.5 L 4.34375,39.75 L 5.59375,39.75 L 5.59375,38.5 L 4.34375,38.5 z M 6.65625,38.5 L 6.65625,39.75 L 7.9375,39.75 L 7.9375,38.5 L 6.65625,38.5 z M 9.3125,38.5 L 9.3125,39.75 L 10.5625,39.75 L 10.5625,38.5 L 9.3125,38.5 z M 12.25,38.5 L 12.25,39.75 L 13.53125,39.75 L 13.53125,38.5 L 12.25,38.5 z M 15.53125,38.5 L 15.53125,39.75 L 16.8125,39.75 L 16.8125,38.5 L 15.53125,38.5 z M 18.90625,38.5 L 18.90625,39.75 L 20.1875,39.75 L 20.1875,38.5 L 18.90625,38.5 z M 22.40625,38.5 L 22.40625,39.75 L 23.65625,39.75 L 23.65625,38.5 L 22.40625,38.5 z M 25.875,38.5 L 25.875,39.75 L 27.15625,39.75 L 27.15625,38.5 L 25.875,38.5 z M 29.25,38.5 L 29.25,39.75 L 30.53125,39.75 L 30.53125,38.5 L 29.25,38.5 z M 32.53125,38.5 L 32.53125,39.75 L 33.8125,39.75 L 33.8125,38.5 L 32.53125,38.5 z M 35.5,38.5 L 35.5,39.75 L 36.78125,39.75 L 36.78125,38.5 L 35.5,38.5 z M 38.125,38.5 L 38.125,39.75 L 39.40625,39.75 L 39.40625,38.5 L 38.125,38.5 z M 40.46875,38.5 L 40.46875,39.75 L 41.71875,39.75 L 41.71875,38.5 L 40.46875,38.5 z M 42.25,38.5 L 42.25,39.75 L 46.0625,39.75 L 46.0625,38.5 L 42.25,38.5 z M 0,41.75 L 0,43.03125 L 3.8125,43.03125 L 3.8125,41.75 L 0,41.75 z M 4.34375,41.75 L 4.34375,43.03125 L 5.59375,43.03125 L 5.59375,41.75 L 4.34375,41.75 z M 6.65625,41.75 L 6.65625,43.03125 L 7.9375,43.03125 L 7.9375,41.75 L 6.65625,41.75 z M 9.3125,41.75 L 9.3125,43.03125 L 10.5625,43.03125 L 10.5625,41.75 L 9.3125,41.75 z M 12.25,41.75 L 12.25,43.03125 L 13.53125,43.03125 L 13.53125,41.75 L 12.25,41.75 z M 15.53125,41.75 L 15.53125,43.03125 L 16.8125,43.03125 L 16.8125,41.75 L 15.53125,41.75 z M 18.90625,41.75 L 18.90625,43.03125 L 20.1875,43.03125 L 20.1875,41.75 L 18.90625,41.75 z M 22.40625,41.75 L 22.40625,43.03125 L 23.65625,43.03125 L 23.65625,41.75 L 22.40625,41.75 z M 25.875,41.75 L 25.875,43.03125 L 27.15625,43.03125 L 27.15625,41.75 L 25.875,41.75 z M 29.25,41.75 L 29.25,43.03125 L 30.53125,43.03125 L 30.53125,41.75 L 29.25,41.75 z M 32.53125,41.75 L 32.53125,43.03125 L 33.8125,43.03125 L 33.8125,41.75 L 32.53125,41.75 z M 35.5,41.75 L 35.5,43.03125 L 36.78125,43.03125 L 36.78125,41.75 L 35.5,41.75 z M 38.125,41.75 L 38.125,43.03125 L 39.40625,43.03125 L 39.40625,41.75 L 38.125,41.75 z M 40.46875,41.75 L 40.46875,43.03125 L 41.71875,43.03125 L 41.71875,41.75 L 40.46875,41.75 z M 42.25,41.75 L 42.25,43.03125 L 46.0625,43.03125 L 46.0625,41.75 L 42.25,41.75 z M 0,44.71875 L 0,46 L 3.8125,46 L 3.8125,44.71875 L 0,44.71875 z M 4.34375,44.71875 L 4.34375,46 L 5.59375,46 L 5.59375,44.71875 L 4.34375,44.71875 z M 6.65625,44.71875 L 6.65625,46 L 7.9375,46 L 7.9375,44.71875 L 6.65625,44.71875 z M 9.3125,44.71875 L 9.3125,46 L 10.5625,46 L 10.5625,44.71875 L 9.3125,44.71875 z M 12.25,44.71875 L 12.25,46 L 13.53125,46 L 13.53125,44.71875 L 12.25,44.71875 z M 15.53125,44.71875 L 15.53125,46 L 16.8125,46 L 16.8125,44.71875 L 15.53125,44.71875 z M 18.90625,44.71875 L 18.90625,46 L 20.1875,46 L 20.1875,44.71875 L 18.90625,44.71875 z M 22.40625,44.71875 L 22.40625,46 L 23.65625,46 L 23.65625,44.71875 L 22.40625,44.71875 z M 25.875,44.71875 L 25.875,46 L 27.15625,46 L 27.15625,44.71875 L 25.875,44.71875 z M 29.25,44.71875 L 29.25,46 L 30.53125,46 L 30.53125,44.71875 L 29.25,44.71875 z M 32.53125,44.71875 L 32.53125,46 L 33.8125,46 L 33.8125,44.71875 L 32.53125,44.71875 z M 35.5,44.71875 L 35.5,46 L 36.78125,46 L 36.78125,44.71875 L 35.5,44.71875 z M 38.125,44.71875 L 38.125,46 L 39.40625,46 L 39.40625,44.71875 L 38.125,44.71875 z M 40.46875,44.71875 L 40.46875,46 L 41.71875,46 L 41.71875,44.71875 L 40.46875,44.71875 z M 42.25,44.71875 L 42.25,46 L 46.0625,46 L 46.0625,44.71875 L 42.25,44.71875 z M 0,47.375 L 0,48.625 L 3.8125,48.625 L 3.8125,47.375 L 0,47.375 z M 4.34375,47.375 L 4.34375,48.625 L 5.59375,48.625 L 5.59375,47.375 L 4.34375,47.375 z M 6.65625,47.375 L 6.65625,48.625 L 7.9375,48.625 L 7.9375,47.375 L 6.65625,47.375 z M 9.3125,47.375 L 9.3125,48.625 L 10.5625,48.625 L 10.5625,47.375 L 9.3125,47.375 z M 12.25,47.375 L 12.25,48.625 L 13.53125,48.625 L 13.53125,47.375 L 12.25,47.375 z M 15.53125,47.375 L 15.53125,48.625 L 16.8125,48.625 L 16.8125,47.375 L 15.53125,47.375 z M 18.90625,47.375 L 18.90625,48.625 L 20.1875,48.625 L 20.1875,47.375 L 18.90625,47.375 z M 22.40625,47.375 L 22.40625,48.625 L 23.65625,48.625 L 23.65625,47.375 L 22.40625,47.375 z M 25.875,47.375 L 25.875,48.625 L 27.15625,48.625 L 27.15625,47.375 L 25.875,47.375 z M 29.25,47.375 L 29.25,48.625 L 30.53125,48.625 L 30.53125,47.375 L 29.25,47.375 z M 32.53125,47.375 L 32.53125,48.625 L 33.8125,48.625 L 33.8125,47.375 L 32.53125,47.375 z M 35.5,47.375 L 35.5,48.625 L 36.78125,48.625 L 36.78125,47.375 L 35.5,47.375 z M 38.125,47.375 L 38.125,48.625 L 39.40625,48.625 L 39.40625,47.375 L 38.125,47.375 z M 40.46875,47.375 L 40.46875,48.625 L 41.71875,48.625 L 41.71875,47.375 L 40.46875,47.375 z M 42.25,47.375 L 42.25,48.625 L 46.0625,48.625 L 46.0625,47.375 L 42.25,47.375 z M 0,49.6875 L 0,50.96875 L 3.8125,50.96875 L 3.8125,49.6875 L 0,49.6875 z M 4.34375,49.6875 L 4.34375,50.96875 L 5.59375,50.96875 L 5.59375,49.6875 L 4.34375,49.6875 z M 6.65625,49.6875 L 6.65625,50.96875 L 7.9375,50.96875 L 7.9375,49.6875 L 6.65625,49.6875 z M 9.3125,49.6875 L 9.3125,50.96875 L 10.5625,50.96875 L 10.5625,49.6875 L 9.3125,49.6875 z M 12.25,49.6875 L 12.25,50.96875 L 13.53125,50.96875 L 13.53125,49.6875 L 12.25,49.6875 z M 15.53125,49.6875 L 15.53125,50.96875 L 16.8125,50.96875 L 16.8125,49.6875 L 15.53125,49.6875 z M 18.90625,49.6875 L 18.90625,50.96875 L 20.1875,50.96875 L 20.1875,49.6875 L 18.90625,49.6875 z M 22.40625,49.6875 L 22.40625,50.96875 L 23.65625,50.96875 L 23.65625,49.6875 L 22.40625,49.6875 z M 25.875,49.6875 L 25.875,50.96875 L 27.15625,50.96875 L 27.15625,49.6875 L 25.875,49.6875 z M 29.25,49.6875 L 29.25,50.96875 L 30.53125,50.96875 L 30.53125,49.6875 L 29.25,49.6875 z M 32.53125,49.6875 L 32.53125,50.96875 L 33.8125,50.96875 L 33.8125,49.6875 L 32.53125,49.6875 z M 35.5,49.6875 L 35.5,50.96875 L 36.78125,50.96875 L 36.78125,49.6875 L 35.5,49.6875 z M 38.125,49.6875 L 38.125,50.96875 L 39.40625,50.96875 L 39.40625,49.6875 L 38.125,49.6875 z M 40.46875,49.6875 L 40.46875,50.96875 L 41.71875,50.96875 L 41.71875,49.6875 L 40.46875,49.6875 z M 42.25,49.6875 L 42.25,50.96875 L 46.0625,50.96875 L 46.0625,49.6875 L 42.25,49.6875 z M 0,51.46875 L 0,55.28125 L 3.8125,55.28125 L 3.8125,51.46875 L 0,51.46875 z M 4.34375,51.46875 L 4.34375,55.28125 L 5.59375,55.28125 L 5.59375,51.46875 L 4.34375,51.46875 z M 6.65625,51.46875 L 6.65625,55.28125 L 7.9375,55.28125 L 7.9375,51.46875 L 6.65625,51.46875 z M 9.3125,51.46875 L 9.3125,55.28125 L 10.5625,55.28125 L 10.5625,51.46875 L 9.3125,51.46875 z M 12.25,51.46875 L 12.25,55.28125 L 13.53125,55.28125 L 13.53125,51.46875 L 12.25,51.46875 z M 15.53125,51.46875 L 15.53125,55.28125 L 16.8125,55.28125 L 16.8125,51.46875 L 15.53125,51.46875 z M 18.90625,51.46875 L 18.90625,55.28125 L 20.1875,55.28125 L 20.1875,51.46875 L 18.90625,51.46875 z M 22.40625,51.46875 L 22.40625,55.28125 L 23.65625,55.28125 L 23.65625,51.46875 L 22.40625,51.46875 z M 25.875,51.46875 L 25.875,55.28125 L 27.15625,55.28125 L 27.15625,51.46875 L 25.875,51.46875 z M 29.25,51.46875 L 29.25,55.28125 L 30.53125,55.28125 L 30.53125,51.46875 L 29.25,51.46875 z M 32.53125,51.46875 L 32.53125,55.28125 L 33.8125,55.28125 L 33.8125,51.46875 L 32.53125,51.46875 z M 35.5,51.46875 L 35.5,55.28125 L 36.78125,55.28125 L 36.78125,51.46875 L 35.5,51.46875 z M 38.125,51.46875 L 38.125,55.28125 L 39.40625,55.28125 L 39.40625,51.46875 L 38.125,51.46875 z M 40.46875,51.46875 L 40.46875,55.28125 L 41.71875,55.28125 L 41.71875,51.46875 L 40.46875,51.46875 z M 42.25,51.46875 L 42.25,55.28125 L 46.0625,55.28125 L 46.0625,51.46875 L 42.25,51.46875 z "
       transform="translate(241.235,646.21501)"
       style="fill:#03499a;fill-opacity:1;fill-rule:nonzero;stroke:none"
       id="path2795" />
    <path
       d="M 52.5625,0 C 51.63,-0.025 50.68125,0.023750003 49.875,0.125 L 49.875,1.125 C 50.24,1.15 50.666251,1.2 50.96875,1.25 L 50.96875,9.21875 L 52.5625,9.21875 L 52.5625,6.1875 C 52.5625,5.09 53.21125,4.1562502 54.03125,4.15625 C 54.63625,4.15625 54.8125,4.5637499 54.8125,5.21875 L 54.8125,9.21875 L 56.40625,9.21875 L 56.40625,4.8125 C 56.40625,3.71625 55.942502,2.8125001 54.53125,2.8125 C 53.557938,2.8125 52.838505,3.2750573 52.46875,3.96875 C 52.5575,3.6025 52.562501,3.0962501 52.5625,2.71875 L 52.5625,0 z M 72.34375,0 C 71.41125,-0.025 70.4625,0.023750003 69.65625,0.125 L 69.65625,1.125 C 70.02125,1.15 70.447497,1.2 70.75,1.25 L 70.75,9.21875 L 72.34375,9.21875 L 72.34375,6.1875 C 72.34375,5.09 72.993754,4.1562502 73.8125,4.15625 C 74.4175,4.15625 74.593752,4.5637499 74.59375,5.21875 L 74.59375,9.21875 L 76.1875,9.21875 L 76.1875,4.8125 C 76.1875,3.71625 75.723752,2.8125001 74.3125,2.8125 C 73.339188,2.8125 72.618544,3.2750573 72.25,3.96875 C 72.3375,3.6025 72.343751,3.0962501 72.34375,2.71875 L 72.34375,0 z M 90.4375,0 C 89.505,-0.025 88.526249,0.023750003 87.71875,0.125 L 87.71875,1.125 C 88.085,1.15 88.510003,1.2 88.8125,1.25 L 88.8125,9.21875 L 90.4375,9.21875 L 90.4375,6.1875 C 90.4375,5.09 91.055002,4.1562502 91.875,4.15625 C 92.48,4.15625 92.656252,4.5637499 92.65625,5.21875 L 92.65625,9.21875 L 94.28125,9.21875 L 94.28125,4.8125 C 94.28125,3.71625 93.818751,2.8125001 92.40625,2.8125 C 91.4225,2.8125 90.709998,3.2937499 90.34375,4 L 90.3125,3.96875 C 90.40125,3.6025 90.437499,3.0962501 90.4375,2.71875 L 90.4375,0 z M 105.78125,0 C 104.8475,-0.025 103.87,0.023750003 103.0625,0.125 L 103.0625,1.125 C 103.42875,1.15 103.8525,1.2 104.15625,1.25 L 104.15625,9.21875 L 105.78125,9.21875 L 105.78125,0 z M 152.4375,0 C 151.50375,-0.025 150.52625,0.023750003 149.71875,0.125 L 149.71875,1.125 C 150.085,1.15 150.50875,1.2 150.8125,1.25 L 150.8125,9.21875 L 152.4375,9.21875 L 152.4375,6.1875 C 152.4375,5.09 153.05499,4.1562502 153.875,4.15625 C 154.48,4.15625 154.65624,4.5637499 154.65625,5.21875 L 154.65625,9.21875 L 156.25,9.21875 L 156.25,4.8125 C 156.25,3.71625 155.81874,2.8125001 154.40625,2.8125 C 153.4225,2.8125 152.70875,3.2937499 152.34375,4 L 152.3125,3.96875 C 152.40125,3.6025 152.43751,3.0962501 152.4375,2.71875 L 152.4375,0 z M 166.125,0.1875 C 165.5825,0.1875 165.125,0.62749999 165.125,1.15625 C 165.125,1.69875 165.5825,2.1562499 166.125,2.15625 C 166.67875,2.15625 167.12499,1.69875 167.125,1.15625 C 167.125,0.615 166.67875,0.18749999 166.125,0.1875 z M 80.3125,2.8125 C 78.5475,2.8125 77.656249,3.71625 77.65625,4.8125 C 77.65625,6.94375 80.187503,6.3274999 80.1875,7.4375 C 80.1875,7.85375 79.773751,8.0937496 79.15625,8.09375 C 78.6775,8.09375 78.202498,8.0075001 77.8125,7.90625 L 77.78125,9.25 C 78.185,9.3125 78.639999,9.3437501 79.09375,9.34375 C 80.80875,9.34375 81.874998,8.5175002 81.875,7.28125 C 81.875,5.25125 79.312498,5.7087501 79.3125,4.6875 C 79.3125,4.2975 79.620003,4.03125 80.25,4.03125 C 80.64125,4.03125 81.05375,4.1174998 81.40625,4.21875 L 81.4375,2.9375 C 81.05875,2.875 80.677502,2.8125001 80.3125,2.8125 z M 110.09375,2.8125 C 108.215,2.8125 107.15625,4.24 107.15625,6.15625 C 107.15625,8.3625 108.25875,9.3437501 110.25,9.34375 C 111.0325,9.34375 111.83125,9.2012503 112.5,8.9375 L 112.34375,7.6875 C 111.80125,7.94 111.14875,8.0937503 110.53125,8.09375 C 109.37125,8.09375 108.76875,7.5162501 108.78125,6.34375 L 112.6875,6.34375 C 112.725,6.07875 112.71875,5.8387499 112.71875,5.625 C 112.71875,4.07375 111.9225,2.8125001 110.09375,2.8125 z M 120.90625,2.8125 C 119.97375,2.8125 119.22125,3.3250001 118.84375,4.09375 C 118.89375,3.72875 118.90625,3.2400001 118.90625,2.9375 C 118.075,2.9125 117.10625,2.9625001 116.3125,3.0625 L 116.3125,4.0625 C 116.6775,4.0875 117.10375,4.1375001 117.40625,4.1875 L 117.40625,9.21875 L 119,9.21875 L 119,6.21875 C 119,5.04625 119.69375,4.1562502 120.4375,4.15625 C 121.055,4.15625 121.1875,4.6325 121.1875,5.25 L 121.1875,9.21875 L 122.75,9.21875 L 122.75,6.21875 C 122.75,4.995 123.48125,4.1562502 124.1875,4.15625 C 124.78,4.15625 124.9375,4.5825 124.9375,5.25 L 124.9375,9.21875 L 126.5625,9.21875 L 126.5625,4.90625 C 126.5625,3.48125 125.8975,2.8125001 124.6875,2.8125 C 123.62875,2.8125 122.915,3.4762501 122.625,4.09375 C 122.47375,3.48875 122.01625,2.8125001 120.90625,2.8125 z M 130.65625,2.8125 C 129.84875,2.8125 129.03749,2.9925 128.40625,3.21875 L 128.5625,4.5625 C 129.0925,4.25875 129.83875,4.0624999 130.40625,4.0625 C 131.31375,4.0625 131.625,4.4062502 131.625,5.0625 L 131.625,5.40625 C 129.495,5.40625 128.00001,6.1875 128,7.6875 C 128,8.69625 128.6775,9.3437501 129.8125,9.34375 C 130.745,9.34375 131.50876,8.8625003 131.8125,8.15625 C 131.76125,8.48375 131.75,8.8837503 131.75,9.25 C 132.57,9.275 133.54875,9.2249998 134.34375,9.125 L 134.34375,8.125 C 133.97875,8.1 133.55126,8.05 133.25,8 L 133.25,5 C 133.25,3.62625 132.67375,2.8125001 130.65625,2.8125 z M 139.375,2.8125 C 138.35375,2.8125 137.6275,3.3500001 137.25,4.09375 L 137.21875,4.0625 C 137.28125,3.735 137.3125,3.2400001 137.3125,2.9375 C 136.4675,2.9125 135.51375,2.9625001 134.71875,3.0625 L 134.71875,4.0625 C 135.085,4.0875 135.51,4.1375001 135.8125,4.1875 L 135.8125,9.21875 L 137.40625,9.21875 L 137.40625,6.1875 C 137.40625,5.09 138.05499,4.1562502 138.875,4.15625 C 139.4675,4.15625 139.62501,4.5637499 139.625,5.21875 L 139.625,9.21875 L 141.25,9.21875 L 141.25,4.8125 C 141.25,3.71625 140.78751,2.8125001 139.375,2.8125 z M 147.0625,2.8125 C 146.05184,2.8125 145.2883,3.331158 144.90625,4.0625 C 144.97,3.735 145.00001,3.2400001 145,2.9375 C 144.155,2.9125 143.16874,2.9625001 142.375,3.0625 L 142.375,4.0625 C 142.74,4.0875 143.16626,4.1375001 143.46875,4.1875 L 143.46875,9.21875 L 145.09375,9.21875 L 145.09375,6.1875 C 145.09375,5.09 145.7125,4.1562502 146.53125,4.15625 C 147.12375,4.15625 147.3125,4.5637499 147.3125,5.21875 L 147.3125,9.21875 L 148.90625,9.21875 L 148.90625,4.8125 C 148.90625,3.71625 148.47375,2.8125001 147.0625,2.8125 z M 160.59375,2.8125 C 158.71625,2.8125 157.65624,4.24 157.65625,6.15625 C 157.65625,8.3625 158.7575,9.3437501 160.75,9.34375 C 161.53125,9.34375 162.33126,9.2012503 163,8.9375 L 162.84375,7.6875 C 162.30125,7.94 161.65,8.0937503 161.03125,8.09375 C 159.87125,8.09375 159.29874,7.5162501 159.3125,6.34375 L 163.1875,6.34375 C 163.22375,6.07875 163.25,5.8387499 163.25,5.625 C 163.25,4.07375 162.42249,2.8125001 160.59375,2.8125 z M 172.6875,2.8125 C 171.755,2.8125 171.00375,3.3250001 170.625,4.09375 L 170.59375,4.09375 C 170.645,3.72875 170.6875,3.2400001 170.6875,2.9375 C 169.85625,2.9125 168.85625,2.9625001 168.0625,3.0625 L 168.0625,4.0625 C 168.42875,4.0875 168.85249,4.1375001 169.15625,4.1875 L 169.15625,9.21875 L 170.75,9.21875 L 170.75,6.21875 C 170.75,5.04625 171.445,4.1562502 172.1875,4.15625 C 172.80625,4.15625 172.93749,4.6325 172.9375,5.25 L 172.9375,9.21875 L 174.53125,9.21875 L 174.53125,6.21875 C 174.53125,4.995 175.2625,4.1562502 175.96875,4.15625 C 176.56125,4.15625 176.71875,4.5825 176.71875,5.25 L 176.71875,9.21875 L 178.3125,9.21875 L 178.3125,4.90625 C 178.3125,3.48125 177.64875,2.8125001 176.4375,2.8125 C 175.37875,2.8125 174.6975,3.4762501 174.40625,4.09375 C 174.255,3.48875 173.79749,2.8125001 172.6875,2.8125 z M 60.9375,2.84375 C 59.03375,2.84375 57.718751,4.2325 57.71875,6.1875 C 57.71875,8.41875 58.878748,9.3437501 60.65625,9.34375 C 62.535,9.34375 63.843749,7.93625 63.84375,5.96875 C 63.84375,3.8125 62.714998,2.84375 60.9375,2.84375 z M 68.0625,2.84375 C 65.84375,2.84375 64.812497,4.3587501 64.8125,6.3125 C 64.8125,8.44375 65.885002,9.3437499 67.625,9.34375 C 68.29375,9.34375 68.914998,9.2262499 69.34375,9.0625 L 69.21875,7.6875 C 68.87875,7.86375 68.427499,7.9375002 68,7.9375 C 66.9275,7.9375 66.500004,7.1974998 66.5,6.125 C 66.5,4.94 67.009996,4.1875001 68.03125,4.1875 C 68.435,4.1875 68.815002,4.2800001 69.15625,4.40625 L 69.34375,3.03125 C 68.94,2.9175 68.491249,2.84375 68.0625,2.84375 z M 86.125,2.84375 C 83.90625,2.84375 82.874997,4.3587501 82.875,6.3125 C 82.875,8.44375 83.97875,9.3437499 85.71875,9.34375 C 86.38625,9.34375 87.008747,9.2262499 87.4375,9.0625 L 87.3125,7.6875 C 86.9725,7.86375 86.491249,7.9375002 86.0625,7.9375 C 84.99125,7.9375 84.562502,7.1974998 84.5625,6.125 C 84.5625,4.94 85.103753,4.1875001 86.125,4.1875 C 86.52875,4.1875 86.910001,4.2800001 87.25,4.40625 L 87.40625,3.03125 C 87.0025,2.9175 86.553749,2.84375 86.125,2.84375 z M 98.09375,2.9375 C 97.22375,2.9125 96.237497,2.9625001 95.40625,3.0625 L 95.40625,4.0625 C 95.77125,4.0875 96.166249,4.1375001 96.46875,4.1875 L 96.46875,7.34375 C 96.46875,8.44 96.918753,9.3750003 98.34375,9.375 C 99.365,9.375 100.1025,8.8374996 100.46875,8.09375 L 100.5,8.125 C 100.43625,8.4775 100.4375,8.9600003 100.4375,9.25 C 101.27,9.275 102.23625,9.2249998 103.03125,9.125 L 103.03125,8.125 C 102.665,8.1 102.24,8.05 101.9375,8 L 101.9375,2.96875 L 100.3125,2.96875 L 100.3125,5.96875 C 100.3125,7.06625 99.694999,8.0000004 98.875,8 C 98.2825,8 98.093752,7.6237498 98.09375,6.96875 L 98.09375,2.9375 z M 166.9375,2.9375 C 166.005,2.9125 165.0125,2.9625001 164.21875,3.0625 L 164.21875,4.0625 C 164.58375,4.0875 165.04125,4.1375001 165.34375,4.1875 L 165.34375,9.21875 L 166.9375,9.21875 L 166.9375,2.9375 z M 110.03125,4 C 110.7125,4 111.15,4.46875 111.125,5.25 L 108.8125,5.25 C 108.90125,4.49375 109.3625,3.9999999 110.03125,4 z M 160.5625,4 C 161.24375,4 161.65001,4.46875 161.625,5.25 L 159.3125,5.25 C 159.4,4.49375 159.89375,3.9999999 160.5625,4 z M 60.8125,4.1875 C 61.75875,4.1875 62.187499,4.8512501 62.1875,6.0625 C 62.1875,7.335 61.57625,7.9687498 60.78125,7.96875 C 59.84875,7.96875 59.375,7.3162502 59.375,6.03125 C 59.375,4.745 60.093749,4.1875001 60.8125,4.1875 z M 131.625,6.4375 L 131.625,6.59375 C 131.625,7.35125 131.07626,8.1249998 130.28125,8.125 C 129.815,8.125 129.5625,7.8412501 129.5625,7.4375 C 129.5625,6.93375 129.92375,6.4375002 131.625,6.4375 z "
       transform="translate(241.235,646.21501)"
       style="fill:#231f20;fill-opacity:1;fill-rule:nonzero;stroke:none"
       id="path3245" />
  </g>
</svg>
